<svg width="43" height="43" viewBox="0 0 43 43" fill="none" xmlns="http://www.w3.org/2000/svg">
<g clip-path="url(#clip0_1_999)">
<mask id="mask0_1_999" style="mask-type:luminance" maskUnits="userSpaceOnUse" x="0" y="0" width="43" height="43">
<path d="M42.9111 0H0V42.9111H42.9111V0Z" fill="white"/>
</mask>
<g mask="url(#mask0_1_999)">
<path d="M39.8982 13.3937L35.7411 14.2027L31.3048 13.3937L30.3415 8.83662L31.3048 4.80029L39.8982 13.3937Z" fill="#E94335"/>
<path d="M31.3047 13.3936V26.5977H16.0042L11.6036 30.9983L11.0337 33.0545L11.6036 35.1888V40.2957C11.6036 41.5316 13.0988 42.1507 13.9727 41.2769L20.0607 35.1888H37.3816C38.7695 35.1888 39.8959 34.0624 39.8959 32.6745V13.3936H31.3025H31.3047Z" fill="#34A753"/>
<path d="M11.6058 26.5951L6.9929 27.2008L3.01245 26.5951V13.3932L7.3058 12.7026L11.6058 13.3932V26.5951Z" fill="#4284F3"/>
<path d="M11.6057 13.3934H3.01233V7.31657C3.01233 5.92866 4.13875 4.80225 5.52665 4.80225H11.6035L12.3924 8.8721L11.6035 13.3934H11.6057Z" fill="#1967D1"/>
<path d="M3.01031 32.5069V26.5955H11.6037V35.1889H5.69226C4.21272 35.1889 3.01031 33.9864 3.01031 32.5069Z" fill="#188038"/>
<path d="M31.3048 13.3937V4.80029H11.6036V13.3937H31.3048Z" fill="#FABB04"/>
</g>
</g>
<defs>
<clipPath id="clip0_1_999">
<rect width="42.9111" height="42.9111" fill="white"/>
</clipPath>
</defs>
</svg>
