<svg width="43" height="43" viewBox="0 0 43 43" fill="none" xmlns="http://www.w3.org/2000/svg">
<g clip-path="url(#clip0_1_1099)">
<path d="M36.66 6.48193H27.1816L23.3576 11.9151L21.0824 17.2991L27.1816 17.9875L33.5154 17.3237L38.2178 9.18176C38.9129 7.98159 38.0457 6.48193 36.66 6.48193Z" fill="#1967D2"/>
<path d="M4.69573 9.18822L8.63596 15.9422C9.11871 16.7692 10.0037 17.2787 10.9625 17.281L21.0846 17.3011L27.1838 6.48169H6.25126C4.86112 6.48169 3.99619 7.98805 4.69573 9.18822Z" fill="#4285F4"/>
<path d="M23.0916 35.5271C22.4054 36.7206 20.689 36.734 19.985 35.5517L16.0626 28.9675C15.5665 28.1361 15.5553 27.1036 16.0314 26.261L21.0824 17.2988L33.5154 17.3234L23.0916 35.5271Z" fill="#4285F4"/>
</g>
<defs>
<clipPath id="clip0_1_1099">
<rect width="42.9111" height="42.9111" fill="white"/>
</clipPath>
</defs>
</svg>
