<svg width="43" height="43" viewBox="0 0 43 43" fill="none" xmlns="http://www.w3.org/2000/svg">
<g clip-path="url(#clip0_1_1055)">
<path d="M25.9253 11.6219L31.3182 12.641L35.7591 11.6219L25.9253 1.78809L24.5687 6.4502L25.9253 11.6219Z" fill="#F29900"/>
<path d="M25.9252 11.6216V1.78784H9.83356C8.35178 1.78784 7.15161 2.98801 7.15161 4.46979V38.4411C7.15161 39.9229 8.35178 41.123 9.83356 41.123H33.0771C34.5588 41.123 35.759 39.9229 35.759 38.4411V11.6216H25.9252Z" fill="#FBBC04"/>
<path d="M24.5843 30.3952H18.3264V28.1602H24.5843V30.3952ZM24.5508 25.9253H18.3599C16.7284 24.8972 15.6445 23.0802 15.6445 21.0084C15.6445 17.799 18.246 15.1975 21.4553 15.1975C24.6647 15.1975 27.2662 17.799 27.2662 21.0084C27.2662 23.0802 26.1823 24.8972 24.5508 25.9253Z" fill="white"/>
</g>
<defs>
<clipPath id="clip0_1_1055">
<rect width="42.9111" height="42.9111" fill="white"/>
</clipPath>
</defs>
</svg>
