<svg width="43" height="43" viewBox="0 0 43 43" fill="none" xmlns="http://www.w3.org/2000/svg">
<g clip-path="url(#clip0_1_1082)">
<path d="M32.9297 7.74585L29.9483 9.38631L28.4777 12.1979L29.9483 15.6442L32.7375 18.6658L35.7591 16.9851L37.6119 13.7914L35.7591 9.8333L32.9297 7.74585Z" fill="#0066DA"/>
<path d="M21.4061 19.2698L28.4775 12.1984C30.5605 13.7807 32.0914 16.0492 32.7374 18.6663L23.0354 28.3683C22.1616 29.2421 20.7468 29.2421 19.8752 28.3683L13.3335 21.8266C12.6362 21.1293 12.6362 19.9961 13.3335 19.2988L16.1205 16.5118C16.8178 15.8145 17.9509 15.8145 18.6482 16.5118L21.4061 19.2698ZM40.7519 8.12182L37.9157 5.28567C37.2184 4.58836 36.0853 4.58836 35.388 5.28567L32.9296 7.74412C34.8941 9.38904 36.4988 11.4497 37.6118 13.7897L40.7519 10.6496C41.4514 9.95225 41.4514 8.82136 40.7519 8.12182ZM33.0771 21.4556C33.0771 27.8743 27.8741 33.0773 21.4553 33.0773C15.0365 33.0773 9.83355 27.8743 9.83355 21.4556C9.83355 15.0368 15.0365 9.8338 21.4553 9.8338C24.0948 9.8338 26.5264 10.7144 28.4775 12.1984L32.9296 7.74635C29.8252 5.14486 25.8246 3.57593 21.4553 3.57593C11.5813 3.57593 3.57568 11.5815 3.57568 21.4556C3.57568 31.3296 11.5813 39.3352 21.4553 39.3352C31.3293 39.3352 39.3349 31.3296 39.3349 21.4556C39.3349 18.7133 38.7159 16.114 37.6118 13.7919L32.7374 18.6663C32.9586 19.5603 33.0771 20.4945 33.0771 21.4556Z" fill="#2684FC"/>
</g>
<defs>
<clipPath id="clip0_1_1082">
<rect width="42.9111" height="42.9111" fill="white"/>
</clipPath>
</defs>
</svg>
