<svg width="43" height="43" viewBox="0 0 43 43" fill="none" xmlns="http://www.w3.org/2000/svg">
<g clip-path="url(#clip0_1_1064)">
<path d="M25.9252 11.6214L31.3182 12.6405L35.759 11.6214L25.9252 1.7876L24.5686 6.44971L25.9252 11.6214Z" fill="#354287"/>
<path d="M25.9253 11.6214V1.7876H9.83368C8.3519 1.7876 7.15173 2.98777 7.15173 4.46954V38.4408C7.15173 39.9226 8.3519 41.1228 9.83368 41.1228H33.0772C34.559 41.1228 35.7591 39.9226 35.7591 38.4408V11.6214H25.9253Z" fill="#4758B5"/>
<path d="M25.0312 29.0543H13.4094V21.4555H25.0312V29.0543ZM29.5011 29.0543H27.2661V21.4555H29.5011V29.0543ZM29.5011 19.2205H13.4094V16.9856H29.5011V19.2205Z" fill="white"/>
</g>
<defs>
<clipPath id="clip0_1_1064">
<rect width="42.9111" height="42.9111" fill="white"/>
</clipPath>
</defs>
</svg>
