<svg width="43" height="43" viewBox="0 0 43 43" fill="none" xmlns="http://www.w3.org/2000/svg">
<g clip-path="url(#clip0_1_1073)">
<path d="M25.926 11.6219L31.3189 12.641L35.7597 11.6219L25.926 1.78809L24.5693 6.4502L25.926 11.6219Z" fill="#56368A"/>
<path d="M25.9256 11.6216V1.78784H9.83392C8.35215 1.78784 7.15198 2.98801 7.15198 4.46979V38.4411C7.15198 39.9229 8.35215 41.123 9.83392 41.123H33.0774C34.5592 41.123 35.7594 39.9229 35.7594 38.4411V11.6216H25.9256Z" fill="#7248B9"/>
<path d="M14.7513 30.1719C14.0115 30.1719 13.4103 29.5707 13.4103 28.831C13.4103 28.0912 14.0115 27.49 14.7513 27.49C15.491 27.49 16.0922 28.0912 16.0922 28.831C16.0922 29.5707 15.491 30.1719 14.7513 30.1719ZM14.7513 24.808C14.0115 24.808 13.4103 24.2068 13.4103 23.4671C13.4103 22.7273 14.0115 22.1261 14.7513 22.1261C15.491 22.1261 16.0922 22.7273 16.0922 23.4671C16.0922 24.2068 15.491 24.808 14.7513 24.808ZM14.7513 19.4442C14.0115 19.4442 13.4103 18.8429 13.4103 18.1032C13.4103 17.3634 14.0115 16.7622 14.7513 16.7622C15.491 16.7622 16.0922 17.3634 16.0922 18.1032C16.0922 18.8429 15.491 19.4442 14.7513 19.4442ZM29.5019 29.9484H18.3272V27.7135H29.5019V29.9484ZM29.5019 24.5845H18.3272V22.3496H29.5019V24.5845ZM29.5019 19.2207H18.3272V16.9857H29.5019V19.2207Z" fill="white"/>
</g>
<defs>
<clipPath id="clip0_1_1073">
<rect width="42.9111" height="42.9111" fill="white"/>
</clipPath>
</defs>
</svg>
