<svg width="213" height="28" viewBox="0 0 213 28" fill="none" xmlns="http://www.w3.org/2000/svg">
<g clip-path="url(#clip0_1_656)">
<path d="M70.7329 7.48535V23.1689H67.8258L60.1972 13.6468V23.1689H56.7V7.48535H59.629L67.2357 17.0076V7.48535H70.7329Z" fill="white"/>
<path d="M87.8762 20.2564V23.1689H76.0291V7.48535H87.592V10.398H79.5483V13.8036H86.6522V16.6267H79.5483V20.2564H87.8762Z" fill="white"/>
<path d="M97.3967 23.4376C96.1872 23.4376 95.0141 23.2733 93.8775 22.9448C92.7554 22.6013 91.8521 22.1605 91.1671 21.623L92.3694 18.8894C93.025 19.3824 93.8046 19.7782 94.7081 20.0769C95.6116 20.3757 96.5151 20.525 97.4186 20.525C98.4241 20.525 99.1672 20.3757 99.6482 20.0769C100.129 19.7633 100.369 19.3525 100.369 18.8446C100.369 18.4712 100.224 18.165 99.9322 17.926C99.6553 17.6721 99.2911 17.4704 98.8392 17.3211C98.4022 17.1717 97.8048 17.0074 97.047 16.8282C95.8813 16.5444 94.9267 16.2606 94.1836 15.9768C93.4404 15.693 92.7991 15.2374 92.2601 14.61C91.7356 13.9827 91.4731 13.1462 91.4731 12.1006C91.4731 11.1895 91.7136 10.368 92.1944 9.63606C92.6754 8.88923 93.3967 8.29923 94.3585 7.86605C95.3348 7.43288 96.5223 7.21631 97.9214 7.21631C98.8977 7.21631 99.8521 7.3358 100.785 7.57479C101.717 7.81378 102.533 8.15731 103.233 8.60542L102.14 11.3613C100.726 10.5397 99.3129 10.129 97.8994 10.129C96.9085 10.129 96.1726 10.2933 95.6919 10.6219C95.2254 10.9505 94.9923 11.3837 94.9923 11.9214C94.9923 12.4591 95.262 12.8624 95.801 13.1313C96.3549 13.3852 97.1927 13.6391 98.3148 13.8931C99.4805 14.1769 100.435 14.4607 101.178 14.7445C101.921 15.0283 102.555 15.4764 103.08 16.0888C103.619 16.7012 103.889 17.5302 103.889 18.5758C103.889 19.472 103.641 20.2935 103.145 21.0403C102.664 21.7723 101.936 22.3547 100.96 22.7879C99.9833 23.221 98.7955 23.4376 97.3967 23.4376Z" fill="white"/>
<path d="M110.94 10.4428H106.044V7.48535H119.377V10.4428H114.481V23.1689H110.94V10.4428Z" fill="white"/>
<path d="M144.857 7.48535V23.1689H141.95L134.321 13.6468V23.1689H130.824V7.48535H133.753L141.36 17.0076V7.48535H144.857Z" fill="white"/>
<path d="M162 20.2564V23.1689H150.153V7.48535H161.716V10.398H153.672V13.8036H160.776V16.6267H153.672V20.2564H162Z" fill="white"/>
<path d="M173.116 7.48535C174.471 7.48535 175.644 7.71687 176.635 8.17992C177.641 8.64295 178.413 9.30016 178.952 10.1516C179.492 11.003 179.761 12.0112 179.761 13.1763C179.761 14.3264 179.492 15.3347 178.952 16.201C178.413 17.0524 177.641 17.7096 176.635 18.1727C175.644 18.6208 174.471 18.8448 173.116 18.8448H170.034V23.1689H166.493V7.48535H173.116ZM172.92 15.8873C173.983 15.8873 174.792 15.6558 175.346 15.1928C175.899 14.7148 176.176 14.0426 176.176 13.1763C176.176 12.295 175.899 11.6228 175.346 11.1598C174.792 10.6818 173.983 10.4428 172.92 10.4428H170.034V15.8873H172.92Z" fill="white"/>
<path d="M193.273 19.8082H186.169L184.814 23.1689H181.186L188.005 7.48535H191.503L198.344 23.1689H194.628L193.273 19.8082ZM192.158 17.0524L189.732 11.0478L187.306 17.0524H192.158Z" fill="white"/>
<path d="M201.608 7.48535H205.149V20.2115H212.822V23.1689H201.608V7.48535Z" fill="white"/>
<path d="M25.4377 27.2577L8.19647 3.66797H14.7394L26.8905 20.2933L39.0416 3.66797H45.5847L28.3421 27.2593C27.6194 28.2482 26.1604 28.2466 25.4377 27.2577Z" fill="white"/>
<path d="M20.5316 3.90358L38.0061 27.4933H31.3747L19.0593 10.8679L6.74395 27.4933H0.112617L17.5881 3.90193C18.3206 2.9131 19.7992 2.91475 20.5316 3.90358Z" fill="white"/>
<path fill-rule="evenodd" clip-rule="evenodd" d="M29.0683 3.94781C26.6951 4.29946 24.616 4.27158 23.4025 4.13387L23.4872 3.46096C24.2994 3.55312 25.5189 3.5931 26.9574 3.49462C24.3907 2.81649 22.6619 1.86078 21.8384 1.16191L22.3143 0.656715C23.2239 1.42857 25.513 2.64235 29.0753 3.26058C31.4963 2.89003 34.2187 2.11147 36.591 0.626465L36.9842 1.19216C35.1583 2.3352 33.1412 3.07481 31.2012 3.53765C32.0786 3.61595 33.0154 3.6569 34.0104 3.64982C35.7275 2.85106 37.1752 1.95368 38.0744 1.29346L38.5115 1.82947C37.8224 2.33524 36.8332 2.96903 35.6547 3.59573C36.187 3.56479 36.7338 3.52022 37.2953 3.46067L37.3747 4.13418C36.2543 4.25303 35.1885 4.31356 34.1787 4.32581C33.7498 4.5222 33.3053 4.71213 32.8492 4.89088C30.4555 5.8289 27.6973 6.47551 25.167 6.08841L25.2807 5.41934C27.5913 5.77282 30.1663 5.19756 32.4837 4.30065C31.2476 4.24813 30.1081 4.123 29.0683 3.94781Z" fill="white"/>
<path d="M32.664 2.03371C32.5677 1.28458 31.8846 -0.113809 29.9219 0.28573C29.9941 1.09036 30.6436 2.56644 32.664 2.03371Z" fill="#00C11F"/>
<path d="M33.025 1.78438C32.9288 1.25721 32.9674 0.186219 33.891 0.119629C34.0352 0.554795 34.0642 1.49698 33.025 1.78438Z" fill="#00C11F"/>
</g>
<defs>
<clipPath id="clip0_1_656">
<rect width="213" height="28" fill="white"/>
</clipPath>
</defs>
</svg>
