<svg width="43" height="43" viewBox="0 0 43 43" fill="none" xmlns="http://www.w3.org/2000/svg">
<path d="M21.4558 7.15137C10.5939 7.15137 1.78821 15.8744 1.78821 26.6379V35.7588H5.4133V35.0391C5.4133 30.6743 8.98476 27.1363 13.3899 27.1363C17.7949 27.1363 21.3664 30.6743 21.3664 35.0391V35.7588H24.9915V35.0391C24.9915 28.6918 19.7975 23.5448 13.3899 23.5448C10.8956 23.5448 8.5847 24.3247 6.6917 25.6523C8.67186 21.7523 12.7484 19.0771 17.4575 19.0771C24.1087 19.0771 29.5016 24.4186 29.5016 31.0095V35.7588H33.1267V31.0095C33.1267 22.4362 26.1112 15.4855 17.4575 15.4855C13.5664 15.4855 10.0061 16.8913 7.26608 19.2179C9.95696 14.1781 15.3007 10.7452 21.4558 10.7452C30.3152 10.7452 37.4983 17.8613 37.4983 26.6402V35.761H41.1234V26.6402C41.1234 15.8789 32.3177 7.1536 21.4558 7.1536V7.15137Z" fill="black"/>
</svg>
