<svg width="36" height="36" viewBox="0 0 36 36" fill="none" xmlns="http://www.w3.org/2000/svg">
<path d="M3.651 32.4772L5.6715 25.101C4.425 22.9425 3.7695 20.493 3.77025 17.9842C3.774 10.1355 10.161 3.75 18.0105 3.75C21.8198 3.7515 25.3943 5.23425 28.083 7.9245C30.771 10.6155 32.2515 14.1915 32.25 17.9955C32.247 25.8442 25.8585 32.2305 18.0105 32.2305H18.0045C15.6218 32.2297 13.2795 31.632 11.1998 30.4972L3.651 32.4772Z" fill="white"/>
<path d="M3.65104 32.8522C3.55204 32.8522 3.45604 32.8132 3.38479 32.7412C3.29104 32.646 3.25429 32.5072 3.28954 32.379L5.26879 25.152C4.04179 22.9725 3.39454 20.4975 3.39604 17.985C3.39904 9.9285 9.95479 3.375 18.0105 3.375C21.918 3.3765 25.5893 4.89825 28.3485 7.65975C31.1078 10.422 32.6265 14.0925 32.625 17.9955C32.622 26.0512 26.0655 32.6055 18.0105 32.6055C15.6188 32.6047 13.2525 32.0145 11.1525 30.8977L3.74629 32.8395C3.71479 32.8485 3.68329 32.8522 3.65104 32.8522Z" fill="white"/>
<path d="M18.0104 3.75C21.8197 3.7515 25.3942 5.23425 28.0829 7.9245C30.7709 10.6155 32.2514 14.1915 32.2499 17.9955C32.2469 25.8442 25.8584 32.2305 18.0104 32.2305H18.0044C15.6217 32.2297 13.2794 31.632 11.1997 30.4972L3.65094 32.4772L5.67144 25.101C4.42494 22.9425 3.76944 20.493 3.77019 17.9842C3.77394 10.1355 10.1609 3.75 18.0104 3.75ZM18.0104 3C9.74844 3 3.02394 9.7215 3.02019 17.9842C3.01944 20.5095 3.65694 22.998 4.86594 25.2008L2.92719 32.28C2.85669 32.5387 2.92869 32.8147 3.11769 33.0052C3.26019 33.1492 3.45294 33.228 3.65094 33.228C3.71469 33.228 3.77844 33.2197 3.84144 33.2032L11.1067 31.2982C13.2277 32.3992 15.6052 32.9805 18.0044 32.9812C26.2724 32.9812 32.9969 26.259 33.0007 17.9962C33.0022 13.992 31.4444 10.227 28.6147 7.395C25.7834 4.56225 22.0177 3.0015 18.0104 3Z" fill="#CFD8DC"/>
<path d="M26.382 9.62404C24.147 7.38754 21.1762 6.15529 18.0142 6.15454C11.4862 6.15454 6.17695 11.4615 6.17395 17.985C6.1732 20.2208 6.7987 22.3973 7.9837 24.282L8.2657 24.7298L7.06945 29.0955L11.5492 27.921L11.982 28.1775C13.7985 29.256 15.882 29.826 18.006 29.8268H18.0105C24.534 29.8268 29.8432 24.519 29.8455 17.9948C29.8462 14.8335 28.617 11.8605 26.382 9.62404Z" fill="#F25277"/>
<path fill-rule="evenodd" clip-rule="evenodd" d="M14.4511 12.0337C14.1848 11.4412 13.9043 11.4292 13.6501 11.4187C13.4423 11.4097 13.2053 11.4104 12.9683 11.4104C12.7313 11.4104 12.3458 11.4997 12.0196 11.8559C11.6933 12.2122 10.7738 13.0724 10.7738 14.8229C10.7738 16.5734 12.0488 18.2654 12.2266 18.5024C12.4043 18.7394 14.6881 22.4467 18.3046 23.8732C21.3098 25.0582 21.9218 24.8227 22.5743 24.7634C23.2268 24.7042 24.6796 23.9032 24.9758 23.0722C25.2721 22.2412 25.2721 21.5294 25.1836 21.3809C25.0943 21.2324 24.8573 21.1439 24.5018 20.9654C24.1463 20.7869 22.3966 19.9267 22.0703 19.8082C21.7441 19.6897 21.5071 19.6304 21.2693 19.9867C21.0323 20.3422 20.3506 21.1439 20.1428 21.3809C19.9351 21.6187 19.7273 21.6487 19.3718 21.4702C19.0163 21.2917 17.8703 20.9167 16.5106 19.7047C15.4531 18.7619 14.7391 17.5972 14.5313 17.2409C14.3236 16.8854 14.5088 16.6927 14.6873 16.5149C14.8471 16.3552 15.0428 16.0994 15.2213 15.8917C15.3991 15.6839 15.4583 15.5354 15.5768 15.2984C15.6953 15.0607 15.6361 14.8529 15.5468 14.6752C15.4591 14.4967 14.7676 12.7372 14.4511 12.0337Z" fill="white"/>
</svg>
