<svg width="26" height="26" viewBox="0 0 26 26" fill="none" xmlns="http://www.w3.org/2000/svg">
<path d="M2.63037 23.3976L4.086 18.0835C3.18798 16.5285 2.71574 14.7638 2.71628 12.9564C2.71898 7.30195 7.32037 2.70164 12.9754 2.70164C15.7197 2.70273 18.2949 3.77094 20.2319 5.70908C22.1684 7.64776 23.235 10.224 23.234 12.9645C23.2318 18.619 18.6293 23.2199 12.9754 23.2199H12.9711C11.2545 23.2193 9.56703 22.7887 8.06872 21.9712L2.63037 23.3976Z" fill="white"/>
<path d="M2.6304 23.6678C2.55908 23.6678 2.48991 23.6397 2.43858 23.5878C2.37104 23.5192 2.34457 23.4192 2.36996 23.3268L3.79587 18.1203C2.91191 16.5501 2.44561 14.767 2.44669 12.957C2.44885 7.15282 7.17181 2.43148 12.9754 2.43148C15.7905 2.43256 18.4354 3.52888 20.4232 5.51835C22.4111 7.50835 23.5052 10.1527 23.5041 12.9645C23.502 18.7681 18.7785 23.49 12.9754 23.49C11.2523 23.4895 9.54761 23.0642 8.0347 22.2597L2.69902 23.6586C2.67633 23.6651 2.65363 23.6678 2.6304 23.6678Z" fill="white"/>
<path d="M12.9754 2.70164C15.7197 2.70272 18.2949 3.77094 20.2319 5.70908C22.1685 7.64776 23.235 10.224 23.234 12.9645C23.2318 18.619 18.6293 23.2199 12.9754 23.2199H12.9711C11.2545 23.2193 9.56705 22.7887 8.06873 21.9712L2.63039 23.3976L4.08602 18.0835C3.188 16.5285 2.71576 14.7638 2.7163 12.9564C2.719 7.30195 7.32039 2.70164 12.9754 2.70164ZM12.9754 2.16132C7.02321 2.16132 2.17868 7.00369 2.17598 12.9564C2.17544 14.7757 2.63471 16.5685 3.50571 18.1554L2.10898 23.2555C2.05819 23.4419 2.11006 23.6408 2.24622 23.778C2.34888 23.8817 2.48774 23.9385 2.63039 23.9385C2.67632 23.9385 2.72224 23.9325 2.76763 23.9207L8.00173 22.5482C9.52977 23.3414 11.2426 23.7602 12.9711 23.7607C18.9276 23.7607 23.7721 18.9178 23.7748 12.9651C23.7759 10.0803 22.6537 7.36787 20.615 5.32761C18.5753 3.28681 15.8623 2.1624 12.9754 2.16132Z" fill="#CFD8DC"/>
<path d="M19.0066 6.93331C17.3964 5.32206 15.2562 4.43431 12.9782 4.43377C8.27522 4.43377 4.45028 8.2571 4.44812 12.9568C4.44758 14.5675 4.89821 16.1355 5.75192 17.4934L5.95508 17.8159L5.09327 20.9612L8.32061 20.115L8.63238 20.2998C9.94104 21.0768 11.4421 21.4874 12.9722 21.488H12.9755C17.6752 21.488 21.5002 17.6641 21.5018 12.9638C21.5023 10.6864 20.6167 8.54455 19.0066 6.93331Z" fill="#40C351"/>
<path fill-rule="evenodd" clip-rule="evenodd" d="M10.411 8.66962C10.2192 8.24277 10.0171 8.23412 9.83398 8.22656C9.68431 8.22007 9.51357 8.22061 9.34283 8.22061C9.17208 8.22061 8.89436 8.28491 8.65932 8.54157C8.42428 8.79822 7.76184 9.41797 7.76184 10.6791C7.76184 11.9402 8.68039 13.1592 8.80845 13.3299C8.9365 13.5006 10.5818 16.1715 13.1872 17.1992C15.3523 18.0529 15.7932 17.8832 16.2633 17.8405C16.7334 17.7978 17.78 17.2208 17.9934 16.6221C18.2068 16.0234 18.2068 15.5106 18.1431 15.4037C18.0788 15.2967 17.908 15.2329 17.6519 15.1043C17.3958 14.9757 16.1352 14.356 15.9002 14.2706C15.6651 14.1852 15.4944 14.1425 15.3231 14.3992C15.1524 14.6553 14.6612 15.2329 14.5116 15.4037C14.3619 15.5749 14.2122 15.5966 13.9561 15.468C13.7 15.3394 12.8744 15.0692 11.8948 14.196C11.1329 13.5169 10.6185 12.6777 10.4689 12.4211C10.3192 12.165 10.4526 12.0261 10.5812 11.8981C10.6963 11.783 10.8374 11.5987 10.966 11.449C11.094 11.2994 11.1367 11.1924 11.2221 11.0216C11.3074 10.8504 11.2648 10.7007 11.2005 10.5726C11.1372 10.444 10.6391 9.17645 10.411 8.66962Z" fill="white"/>
</svg>
